<svg viewBox="39 39 11.31 11.562" width="11.31pt" height="11.562pt" xmlns="http://www.w3.org/2000/svg" xmlns:xlink="http://www.w3.org/1999/xlink" xmlns:h5="http://www.w3.org/1999/xhtml"><g transform="matrix(1 0 0 -1 40 49.562)"><use xlink:href="#gD903685B138FF8BB88D58DEBD13CFE20" x="0" y="0" fill="#000000" fill-rule="nonzero"/></g><defs><symbol id="gD903685B138FF8BB88D58DEBD13CFE20" overflow="visible"><path d="M 0 0m 5.628 1.876c 0.91 0.07 1.708 0.35 2.422 0.812c 0.84 0.56 1.26 1.26 1.26 2.086c 0 0.826 -0.42 1.526 -1.26 2.086c -0.714 0.476 -1.512 0.756 -2.422 0.826v 0.728c 0 0.182 0.014 0.294 0.056 0.364c 0.07 0.154 0.462 0.238 1.204 0.238h 0.518v 0.546c -0.378 -0.028 -1.176 -0.042 -2.394 -0.042c -1.232 0 -2.03 0.014 -2.408 0.042v -0.546h 0.518c 0.742 0 1.148 -0.07 1.218 -0.224c 0.028 -0.07 0.042 -0.196 0.042 -0.378v -0.728c -0.896 -0.098 -1.68 -0.378 -2.366 -0.84c -0.826 -0.546 -1.232 -1.232 -1.232 -2.058c 0 -0.826 0.406 -1.512 1.218 -2.072c 0.686 -0.462 1.484 -0.742 2.38 -0.84v -0.728c 0 -0.182 -0.014 -0.294 -0.042 -0.364c -0.07 -0.154 -0.476 -0.238 -1.218 -0.238h -0.518v -0.546c 0.378 0.028 1.176 0.042 2.394 0.042c 1.232 0 2.03 -0.014 2.408 -0.042v 0.546h -0.518c -0.742 0 -1.134 0.07 -1.204 0.224c -0.042 0.07 -0.056 0.196 -0.056 0.378Z m 0 5.39c 1.456 -0.182 2.184 -1.008 2.184 -2.478c 0 -1.47 -0.728 -2.296 -2.184 -2.492Z m -1.246 -0.014v -4.942c -1.4 0.21 -2.1 1.022 -2.1 2.464c 0 1.442 0.7 2.268 2.1 2.478Z "/></symbol></defs></svg>