<svg viewBox="39 42.374 9.378 8.342" width="9.378pt" height="8.342pt" xmlns="http://www.w3.org/2000/svg" xmlns:xlink="http://www.w3.org/1999/xlink" xmlns:h5="http://www.w3.org/1999/xhtml"><g transform="matrix(1 0 0 -1 40 49.562)"><use xlink:href="#g72DE767F16D5F4AD9A860DDE64F257F1" x="0" y="0" fill="#000000" fill-rule="nonzero"/></g><defs><symbol id="g72DE767F16D5F4AD9A860DDE64F257F1" overflow="visible"><path d="M 0 0m 7.378 5.222c 0 0.644 -0.63 0.966 -1.33 0.966c -0.602 0 -1.078 -0.322 -1.442 -0.966c -0.294 0.644 -0.784 0.966 -1.498 0.966c -0.686 0 -1.246 -0.322 -1.694 -0.952c -0.378 -0.546 -0.574 -0.952 -0.574 -1.218c 0 -0.126 0.07 -0.196 0.21 -0.196c 0.126 0 0.21 0.07 0.238 0.196c 0.266 0.812 0.854 1.764 1.792 1.764c 0.462 0 0.686 -0.294 0.686 -0.868c 0 -0.294 -0.252 -1.386 -0.742 -3.262c -0.238 -0.938 -0.658 -1.4 -1.26 -1.4c -0.196 0 -0.378 0.042 -0.532 0.112c 0.364 0.14 0.546 0.392 0.546 0.756c 0 0.364 -0.182 0.546 -0.56 0.546c -0.462 0 -0.812 -0.392 -0.812 -0.854c 0 -0.644 0.658 -0.966 1.344 -0.966c 0.588 0 1.064 0.322 1.442 0.966c 0.266 -0.644 0.77 -0.966 1.498 -0.966c 0.672 0 1.232 0.322 1.68 0.952c 0.378 0.546 0.574 0.952 0.574 1.218c 0 0.126 -0.07 0.196 -0.21 0.196c -0.126 0 -0.196 -0.07 -0.238 -0.196c -0.238 -0.798 -0.868 -1.764 -1.778 -1.764c -0.462 0 -0.7 0.28 -0.7 0.854c 0 0.182 0.07 0.574 0.224 1.204l 0.476 1.89c 0.266 1.05 0.7 1.582 1.316 1.582c 0.196 0 0.378 -0.042 0.532 -0.112c -0.378 -0.126 -0.56 -0.378 -0.56 -0.756c 0 -0.364 0.196 -0.546 0.574 -0.546c 0.448 0 0.798 0.406 0.798 0.854Z "/></symbol></defs></svg>