<svg viewBox="39 39 13.914 11.562" width="13.914pt" height="11.562pt" xmlns="http://www.w3.org/2000/svg" xmlns:xlink="http://www.w3.org/1999/xlink" xmlns:h5="http://www.w3.org/1999/xhtml"><g transform="matrix(1 0 0 -1 40 49.562)"><use xlink:href="#gEB95873951FC3B86F6DF738DAB0E70FB" x="0" y="0" fill="#000000" fill-rule="nonzero"/></g><defs><symbol id="gEB95873951FC3B86F6DF738DAB0E70FB" overflow="visible"><path d="M 0 0m 11.676 9.562c -0.238 0 -1.064 -0.042 -1.302 -0.042c -0.28 0 -1.26 0.042 -1.54 0.042c -0.21 0 -0.322 -0.112 -0.322 -0.336c 0 -0.126 0.07 -0.196 0.224 -0.21c 0.336 -0.042 0.504 -0.154 0.504 -0.364c 0 -0.126 -0.084 -0.28 -0.252 -0.462l -2.184 -2.352c -0.406 0.952 -0.798 1.89 -1.204 2.842c 0.014 0.028 0.028 0.056 0.07 0.084c 0.126 0.14 0.364 0.224 0.7 0.252c 0.224 0.028 0.336 0.14 0.336 0.322c 0 0.154 -0.084 0.224 -0.266 0.224c -0.336 0 -1.414 -0.042 -1.75 -0.042c -0.294 0 -1.26 0.042 -1.554 0.042c -0.21 0 -0.308 -0.112 -0.308 -0.336c 0 -0.14 0.126 -0.21 0.378 -0.21c 0.63 0 0.826 0 0.994 -0.406l 1.624 -3.822l -2.912 -3.122c -0.042 -0.042 -0.098 -0.098 -0.168 -0.14c -0.574 -0.602 -1.232 -0.938 -2.002 -0.98c -0.238 -0.014 -0.364 -0.14 -0.364 -0.35c 0.042 -0.126 0.056 -0.196 0.238 -0.196c 0.238 0 1.064 0.042 1.302 0.042c 0.294 0 1.26 -0.042 1.554 -0.042c 0.21 0 0.308 0.112 0.308 0.336c 0 0.126 -0.07 0.196 -0.224 0.21c -0.336 0.028 -0.504 0.154 -0.504 0.364c 0 0.14 0.126 0.336 0.364 0.588c 0.868 0.924 1.75 1.848 2.604 2.786c 0.476 -1.134 0.966 -2.254 1.428 -3.402c -0.014 -0.028 -0.028 -0.056 -0.07 -0.098c -0.126 -0.126 -0.35 -0.196 -0.686 -0.238c -0.21 -0.028 -0.322 -0.14 -0.322 -0.322c 0 -0.154 0.084 -0.224 0.266 -0.224l 1.75 0.042c 0.294 0 1.274 -0.042 1.526 -0.042c 0.21 0 0.322 0.112 0.322 0.322c 0 0.14 -0.098 0.21 -0.308 0.224c -0.434 0 -0.714 0.014 -0.812 0.07c -0.098 0.056 -0.21 0.224 -0.322 0.504l -1.778 4.242c 0.952 1.008 1.666 1.764 2.128 2.282c 0.336 0.35 0.56 0.588 0.686 0.686c 0.518 0.434 1.092 0.658 1.722 0.686c 0.294 0.014 0.364 0.084 0.364 0.35c -0.042 0.126 -0.056 0.196 -0.238 0.196Z "/></symbol></defs></svg>